# xmcd CD database file generated by Grip 2.95
# 
# Track frame offsets:
#       150
#       15676
#       29096
#       50755
#       64452
#       88609
#       109101
#       121147
#       145007
#       179898
#       196874
# 
# Disc length: 3895 seconds
# 
# Revision: 3
# Processed by: cddbd v1.4PL0 Copyright (c) Steve Scherf et al.
# Submitted via: Grip 2.95
# 
DISCID=a20f350b
DTITLE=Black-eyed Snakes - It's the Black-eyed Snakes
DYEAR=1900
DGENRE=
TTITLE0=Chicken-Bone George
TTITLE1=Smokestack Lightin'
TTITLE2=big Black Train
TTITLE3=Honey
TTITLE4=8-Inch Knife
TTITLE5=New Orleans
TTITLE6=Leroy
TTITLE7=Mannish Boy
TTITLE8=My New House
TTITLE9=Cheerios on the Floor
TTITLE10=Extra Track
EXTD=
EXTT0=
EXTT1=
EXTT2=
EXTT3=
EXTT4=
EXTT5=
EXTT6=
EXTT7=
EXTT8=
EXTT9=
EXTT10=
PLAYORDER=
